# xmcd
#
# Track frame offsets:
#	150
#	17130
#	37947
#	58002
#	75460
#	93080
#	107147
#	122267
#	138287
#	159700
#	181962
#	203025
#	240300
#	259915
#	277307
#	293847
#	306617
#	316072
#	331567
#
# Disc length: 4619 seconds
#
# Revision: 1
# Processed by: cddbd v1.5.1PL2 Copyright (c) Steve Scherf et al.
# Submitted via: audiograbber 1.83.01
#
DISCID=fe120913
DTITLE=Galego Aboiador - Cantos da Minha Terra
DYEAR=2005
DGENRE=Sertanejo
TTITLE0=A mulher que mais amei
TTITLE1=Vaqueiro Abandonado
TTITLE2=Vaqueiro Apaixonado
TTITLE3=Filho sem Pai
TTITLE4=Amor Proibido
TTITLE5=Belezas do Sertao
TTITLE6=Meus Tempos de Vaqueiro
TTITLE7=Fazenda Caicara
TTITLE8=Vaquejada Antigamente
TTITLE9=Homenagem aos Vaqueiros
TTITLE10=Recordacao de Vaqueiro
TTITLE11=Mensagem aos Vaqueiros
TTITLE12=Lembranca de um Fazendeiro
TTITLE13=Saudade de Vaqueiro
TTITLE14=Mulher de Cachaceiro
TTITLE15=Vaquejada meu Xodo
TTITLE16=Xumbregado de Vaqueiro
TTITLE17=Morena Louca
TTITLE18=Festa na Lago Real
EXTD=
EXTT0=
EXTT1=
EXTT2=
EXTT3=
EXTT4=
EXTT5=
EXTT6=
EXTT7=
EXTT8=
EXTT9=
EXTT10=
EXTT11=
EXTT12=
EXTT13=
EXTT14=
EXTT15=
EXTT16=
EXTT17=
EXTT18=
PLAYORDER=
